<?xml version="1.0" encoding="UTF-8" standalone="no"?>
<!-- Created with Inkscape (http://www.inkscape.org/) -->

<svg
   width="135mm"
   height="135mm"
   viewBox="0 0 135 135"
   version="1.1"
   id="svg5"
   xml:space="preserve"
   inkscape:version="1.2.2 (732a01da63, 2022-12-09)"
   sodipodi:docname="orthopedia.svg"
   xmlns:inkscape="http://www.inkscape.org/namespaces/inkscape"
   xmlns:sodipodi="http://sodipodi.sourceforge.net/DTD/sodipodi-0.dtd"
   xmlns="http://www.w3.org/2000/svg"
   xmlns:svg="http://www.w3.org/2000/svg"><sodipodi:namedview
     id="namedview7"
     pagecolor="#ffffff"
     bordercolor="#000000"
     borderopacity="0.25"
     inkscape:showpageshadow="2"
     inkscape:pageopacity="0.0"
     inkscape:pagecheckerboard="0"
     inkscape:deskcolor="#d1d1d1"
     inkscape:document-units="mm"
     showgrid="false"
     inkscape:zoom="0.76880612"
     inkscape:cx="352.49459"
     inkscape:cy="387.61398"
     inkscape:window-width="1920"
     inkscape:window-height="1017"
     inkscape:window-x="-8"
     inkscape:window-y="-8"
     inkscape:window-maximized="1"
     inkscape:current-layer="layer1" /><defs
     id="defs2" /><g
     inkscape:label="Слой 1"
     inkscape:groupmode="layer"
     id="layer1"><path
       style="fill:#000000;stroke-width:0.263836"
       d="m 52.569107,134.72669 c -0.328816,-0.13194 -0.697954,-0.51003 -0.820295,-0.84022 -0.12235,-0.33019 -0.30398,-2.67676 -0.403621,-5.2146 -0.319986,-8.15003 -1.109169,-15.04312 -2.557411,-22.33763 -0.84024,-4.23208 -0.81298,-4.75989 0.275833,-5.34187 0.864427,-0.46206 1.79002,-0.30905 2.337784,0.38646 1.20861,1.53458 3.156981,14.78532 3.741734,25.44734 0.374017,6.81953 0.376471,6.77094 -0.380173,7.52663 -0.68152,0.68067 -1.206355,0.77012 -2.193851,0.37389 z m 16.764389,0.0909 c -1.245269,-0.32436 -1.250418,-0.40843 -1.250418,-20.39723 V 95.66016 L 67.185464,94.763669 66.28786,93.867187 h -3.278514 c -4.36107,0 -5.636972,-0.379707 -7.487958,-2.228377 -1.686527,-1.684417 -2.368057,-3.567249 -2.152122,-5.945587 0.257523,-2.836485 1.579253,-4.551995 4.874021,-6.326152 3.649607,-1.965207 5.690095,-3.481595 8.680034,-6.450513 3.974332,-3.946398 6.669489,-8.127156 8.674366,-13.455786 1.317829,-3.502583 2.517319,-4.968595 5.233241,-6.396032 1.219705,-0.641052 1.661583,-0.723484 3.88429,-0.724604 2.167948,-0.0011 2.711931,0.09419 4.011909,0.702782 1.888942,0.884317 3.761101,2.734655 4.584599,4.531175 1.315155,2.869073 1.463149,7.708095 0.363939,11.899517 -1.182048,4.507279 -3.286197,7.997096 -7.035843,11.669222 -1.596875,1.563874 -2.576409,2.743915 -2.734411,3.294163 -0.144283,0.502433 -0.246208,10.919853 -0.246208,25.163705 v 24.30634 l -0.695609,0.54648 c -0.878716,0.69033 -1.427299,0.68939 -2.309906,-0.004 l -0.700707,-0.55048 0.07114,-25.48712 0.07114,-25.487108 0.617232,-1.075492 c 0.339482,-0.591525 1.556084,-1.933217 2.703569,-2.981534 4.950782,-4.522975 7.328129,-9.899091 7.051598,-15.946437 -0.163959,-3.585555 -0.99033,-5.189023 -3.244339,-6.295219 -3.34816,-1.64318 -6.353485,-0.04494 -8.052036,4.282078 -2.266461,5.773762 -5.026875,10.208841 -8.826821,14.181777 -2.815333,2.943505 -5.609592,5.07712 -9.462591,7.225384 -3.156851,1.760126 -3.622806,2.315586 -3.622806,4.318781 0,1.077964 0.127151,1.357627 1.024944,2.254298 l 1.024954,1.023671 h 3.283174 c 2.127457,0 3.745515,0.137136 4.596622,0.389563 1.586807,0.470644 3.342802,1.911971 4.137532,3.396091 l 0.584893,1.092274 0.07254,19.451223 0.07254,19.45121 -0.654579,0.65376 c -0.630632,0.62984 -1.072758,0.7306 -2.068187,0.47132 z m 32.973474,-0.36403 -0.69561,-0.54648 v -6.53138 -6.53139 l -1.32094,-1.11244 c -5.311883,-4.47344 -7.915442,-9.94542 -7.915442,-16.63613 0,-6.292233 2.2397,-11.319196 7.042757,-15.807351 l 2.270895,-2.122015 -0.15864,-9.953772 C 101.36213,64.680259 101.10516,61.733256 99.882662,56.320596 96.388902,40.851788 86.75869,26.894963 73.426876,17.978912 72.157599,17.130044 66.248257,13.60835 60.295011,10.152925 54.341755,6.6975005 49.203615,3.6314141 48.876914,3.3394006 48.027713,2.5803693 48.075907,1.2555848 48.97852,0.54648096 49.361098,0.24591693 49.874319,0 50.119,0 c 0.600927,0 22.657098,12.834757 26.185771,15.237825 9.423457,6.417483 16.855618,15.025657 22.015839,25.49948 2.41898,4.909853 3.90616,8.953983 5.11556,13.910882 1.49216,6.11577 1.66687,7.933775 1.8006,18.736603 0.113,9.128266 0.16027,9.957569 0.55903,9.804588 1.65048,-0.633181 4.4957,-1.225235 6.5578,-1.364593 10.12957,-0.684554 19.3353,5.957377 22.03434,15.897765 0.81763,3.01127 0.81585,7.87345 -0.004,10.77842 -0.72877,2.58242 -2.04991,5.38336 -3.32685,7.05323 -0.81655,1.0678 -1.09218,1.25244 -1.86966,1.25244 -1.10351,0 -1.96793,-0.76979 -1.96793,-1.75249 0,-0.3838 0.43628,-1.35427 0.96951,-2.15661 3.75155,-5.64487 3.97199,-12.921621 0.5672,-18.723075 -1.3004,-2.21574 -4.48237,-5.269315 -6.69665,-6.426445 -3.07646,-1.607673 -5.49119,-2.137651 -9.08349,-1.993629 -4.84867,0.194388 -8.32446,1.700721 -11.62859,5.03957 -2.106017,2.128143 -3.503301,4.400239 -4.399887,7.154578 -0.579255,1.779507 -0.688445,2.595841 -0.688445,5.147161 0,2.54938 0.109349,3.36812 0.686698,5.1416 1.168159,3.58834 3.291584,6.6367 6.082634,8.73215 3.33965,2.50732 6.43181,3.54107 10.59491,3.542 2.94093,7.9e-4 4.78442,-0.3945 7.60172,-1.62947 1.76867,-0.77531 1.89629,-0.79467 2.7036,-0.41017 0.96553,0.45985 1.31238,1.37724 0.91521,2.42061 -0.19327,0.50767 -0.77958,0.93208 -2.17846,1.57688 -3.26557,1.50524 -4.90907,1.84032 -9.04207,1.84352 -3.58613,0.003 -5.04685,-0.2452 -7.91148,-1.34308 -0.35555,-0.13626 -0.40459,0.5172 -0.40459,5.39112 v 5.54618 l -0.69561,0.54648 C 104.22912,134.75408 103.71055,135 103.4593,135 c -0.25124,0 -0.76982,-0.24592 -1.1524,-0.54648 z m 6.8149,-18.31963 c -1.3331,-0.65709 -1.70247,-1.59257 -1.70247,-4.31178 v -2.39828 h -2.27011 c -4.4168,0 -4.93491,-0.72508 -4.81034,-6.73195 l 0.0844,-4.069919 0.86255,-0.861272 c 0.84216,-0.840894 0.92493,-0.863416 3.49803,-0.9519 l 2.63547,-0.09059 V 94.27362 c 0,-2.108482 0.0787,-2.544535 0.57233,-3.171308 0.94448,-1.199205 1.95734,-1.455379 5.68925,-1.438916 5.48271,0.02422 6.18573,0.532619 6.36396,4.60257 l 0.10955,2.501682 h 2.08901 c 2.31793,0 3.62402,0.411568 4.28157,1.349177 0.62114,0.885698 0.63633,9.050545 0.0185,9.931555 -0.72122,1.02837 -1.77196,1.37552 -4.16342,1.37552 h -2.22564 l -0.10801,2.4666 c -0.18274,4.17301 -0.85613,4.65582 -6.48055,4.64654 -2.69809,-0.005 -3.84671,-0.10863 -4.44406,-0.40307 z m 7.00961,-6.01532 c 0,-2.10489 0.0813,-2.57265 0.55131,-3.16934 0.91415,-1.16069 1.8472,-1.48048 4.31962,-1.48048 h 2.25713 v -2.37305 -2.37304 h -2.27012 c -3.99125,0 -4.85794,-0.842241 -4.85794,-4.720861 v -2.39828 h -2.34004 -2.34005 l -0.12821,2.447998 c -0.14421,2.753631 -0.40298,3.421502 -1.61061,4.156923 -0.66325,0.4039 -1.32971,0.51245 -3.15117,0.51323 l -2.31002,9.9e-4 v 2.37304 2.37305 h 2.1205 c 3.91821,0 4.74724,0.77475 4.94887,4.62489 l 0.13064,2.49425 h 2.34005 2.34004 z M 46.641724,96.569825 C 46.420072,96.316042 46.029092,95.455806 45.772876,94.658203 43.825712,88.596706 40.167694,81.400432 36.750995,76.909805 34.933456,74.520992 31.296342,70.845159 28.878743,68.953767 27.71714,68.044988 25.044114,66.32321 22.938698,65.127593 15.381952,60.836287 10.646974,56.572276 6.6878888,50.493164 3.1395991,45.044815 0.65160561,37.916044 0.09124905,31.592072 c -0.1716821,-1.937651 -0.14994994,-2.055623 0.49787409,-2.702636 0.84116846,-0.840115 1.85426846,-0.867439 2.65120426,-0.0715 0.4844537,0.483848 0.6365389,0.998791 0.7592787,2.5708 0.6343337,8.124469 4.6603219,16.773669 10.6230169,22.821899 2.881478,2.922805 5.682502,5.015341 9.668947,7.223289 4.459504,2.469952 7.440183,4.591468 10.305995,7.335353 4.271189,4.089474 7.564639,8.536233 10.339312,13.959945 2.33508,4.564451 4.930048,11.216348 4.930048,12.637625 0,1.412507 -2.294669,2.268408 -3.225201,1.202981 z M 53.826958,69.339972 C 50.138707,68.696137 47.49311,66.207918 46.543989,62.490229 46.16208,60.99431 46.149088,60.502501 46.441834,58.622708 46.626308,57.438203 46.709714,55.815642 46.627186,55.017022 46.302451,51.874604 47.102839,52.766975 22.822604,28.476562 10.428625,16.077392 0.21360971,5.6813211 0.12258008,5.3741818 -0.27155237,4.0444484 1.0572128,2.6491326 2.3930524,2.9900053 2.7309187,3.0762173 13.222814,13.367617 25.746348,25.897004 c 21.077645,21.087505 22.798287,22.875732 23.539705,24.464324 1.017241,2.17956 1.485131,4.571077 1.275603,6.51996 -0.50908,4.735022 -0.512223,4.61988 0.160576,5.87262 0.350479,0.652584 1.143254,1.542478 1.761722,1.977534 0.955966,0.672476 1.368338,0.790817 2.751753,0.789671 1.900168,-0.002 2.998261,-0.533048 4.219622,-2.042301 0.716743,-0.885688 0.818528,-1.24105 0.974655,-3.402807 0.169826,-2.351542 0.199201,-2.436617 1.137815,-3.295708 0.887417,-0.812242 1.099919,-0.881861 2.691845,-0.881861 2.755435,0 4.47966,-0.961696 5.436474,-3.032225 0.577758,-1.250279 0.637426,-2.982527 0.143324,-4.161301 -0.502983,-1.199989 -2.328215,-2.760856 -3.481028,-2.976856 -0.530282,-0.09936 -1.755086,-0.07775 -2.721779,0.04802 -4.007249,0.521354 -7.231502,-0.05321 -9.945648,-1.77231 -1.525631,-0.966321 -7.155838,-6.401106 -7.683716,-7.41702 -0.45891,-0.883175 -0.240551,-1.917776 0.516533,-2.447392 1.168627,-0.817517 1.667569,-0.532788 5.345384,3.050407 4.312347,4.201413 5.512895,4.875514 8.557822,4.80518 1.089013,-0.02515 3.108628,-0.07199 4.488041,-0.104085 2.911462,-0.06774 4.226218,0.376366 6.088269,2.056509 3.855973,3.479288 4.136315,9.110056 0.645689,12.96893 -1.215495,1.343725 -3.742971,2.591243 -5.709722,2.818208 l -1.483774,0.171228 -0.147246,1.424865 c -0.295619,2.860721 -2.15356,5.700276 -4.59313,7.019834 -1.039891,0.562476 -3.960033,1.350432 -4.550663,1.227926 -0.08222,-0.01704 -0.684114,-0.124331 -1.337516,-0.238386 z M 41.286851,31.788834 C 40.85125,31.591661 34.10929,25.038195 26.304719,17.225575 12.741903,3.6487562 12.114604,2.9781991 12.114604,2.0568869 12.114604,0.9877506 13.048149,0 14.058615,0 c 0.378038,0 5.129209,4.5635171 15.029637,14.436034 7.962274,7.939819 14.595862,14.650636 14.741312,14.912926 0.428746,0.773147 0.009,1.99167 -0.835571,2.428083 -0.889432,0.459369 -0.720903,0.458204 -1.707142,0.01179 z"
       id="path314" /></g></svg>
