<?xml version="1.0" encoding="UTF-8" standalone="no"?>
<svg
   width="1080"
   zoomAndPan="magnify"
   viewBox="0 0 810 809.999993"
   height="1080"
   preserveAspectRatio="xMidYMid meet"
   version="1.0"
   id="svg22"
   sodipodi:docname="Treatment room.svg"
   inkscape:version="1.2.2 (732a01da63, 2022-12-09)"
   xmlns:inkscape="http://www.inkscape.org/namespaces/inkscape"
   xmlns:sodipodi="http://sodipodi.sourceforge.net/DTD/sodipodi-0.dtd"
   xmlns="http://www.w3.org/2000/svg"
   xmlns:svg="http://www.w3.org/2000/svg">
  <sodipodi:namedview
     id="namedview24"
     pagecolor="#ffffff"
     bordercolor="#000000"
     borderopacity="0.25"
     inkscape:showpageshadow="2"
     inkscape:pageopacity="0.0"
     inkscape:pagecheckerboard="0"
     inkscape:deskcolor="#d1d1d1"
     showgrid="false"
     inkscape:zoom="0.79907407"
     inkscape:cx="459.28158"
     inkscape:cy="440.50985"
     inkscape:window-width="1920"
     inkscape:window-height="1017"
     inkscape:window-x="-8"
     inkscape:window-y="-8"
     inkscape:window-maximized="1"
     inkscape:current-layer="svg22" />
  <defs
     id="defs8">
    <clipPath
       id="ac201cedc9">
      <path
         d="M 405 206 L 705.75 206 L 705.75 604 L 405 604 Z M 405 206 "
         clip-rule="nonzero"
         id="path2" />
    </clipPath>
    <clipPath
       id="03f2183563">
      <path
         d="M 51 202.214844 L 391 202.214844 L 391 607.964844 L 51 607.964844 Z M 51 202.214844 "
         clip-rule="nonzero"
         id="path5" />
    </clipPath>
  </defs>
  <path
     fill="#2e4c69"
     d="M 405.066406 790.921875 C 192.1875 790.921875 19.003906 617.726562 19.003906 404.847656 C 19.003906 191.972656 192.1875 18.796875 405.066406 18.796875 C 617.945312 18.796875 791.140625 191.972656 791.140625 404.847656 C 791.140625 617.726562 617.945312 790.921875 405.066406 790.921875 Z M 405.066406 -0.09375 C 181.789062 -0.09375 0.125 181.570312 0.125 404.847656 C 0.125 628.136719 181.789062 809.800781 405.066406 809.800781 C 628.355469 809.800781 810.007812 628.136719 810.007812 404.847656 C 810.007812 181.570312 628.355469 -0.09375 405.066406 -0.09375 "
     fill-opacity="1"
     fill-rule="nonzero"
     id="path10"
     style="fill:#000000;fill-opacity:1" />
  <path
     fill="#2e4c69"
     d="M 405.066406 13.402344 C 189.230469 13.402344 13.632812 189.011719 13.632812 404.847656 C 13.632812 620.695312 189.230469 796.304688 405.066406 796.304688 C 620.914062 796.304688 796.523438 620.695312 796.523438 404.847656 C 796.523438 189.011719 620.914062 13.402344 405.066406 13.402344 Z M 405.066406 804.417969 C 184.757812 804.417969 5.507812 625.167969 5.507812 404.847656 C 5.507812 184.527344 184.757812 5.289062 405.066406 5.289062 C 625.386719 5.289062 804.636719 184.527344 804.636719 404.847656 C 804.636719 625.167969 625.386719 804.417969 405.066406 804.417969 "
     fill-opacity="1"
     fill-rule="nonzero"
     id="path12"
     style="fill:#000000;fill-opacity:1" />
  <g
     clip-path="url(#ac201cedc9)"
     id="g16"
     style="fill:#000000;fill-opacity:1">
    <path
       fill="#2e4c69"
       d="M 570.875 246.511719 C 570.871094 245.199219 570.808594 243.894531 570.675781 242.59375 C 570.546875 241.289062 570.355469 239.996094 570.097656 238.710938 C 569.839844 237.429688 569.523438 236.160156 569.140625 234.90625 C 568.761719 233.65625 568.320312 232.425781 567.816406 231.214844 C 567.316406 230.003906 566.757812 228.824219 566.136719 227.667969 C 565.519531 226.515625 564.847656 225.394531 564.121094 224.304688 C 563.390625 223.21875 562.613281 222.167969 561.78125 221.15625 C 560.953125 220.144531 560.074219 219.175781 559.148438 218.25 C 558.222656 217.324219 557.253906 216.445312 556.238281 215.613281 C 555.226562 214.78125 554.175781 214.003906 553.089844 213.277344 C 552 212.546875 550.878906 211.875 549.722656 211.257812 C 548.570312 210.640625 547.386719 210.082031 546.179688 209.578125 C 544.96875 209.078125 543.738281 208.636719 542.484375 208.253906 C 541.230469 207.875 539.964844 207.554688 538.679688 207.300781 C 537.394531 207.042969 536.101562 206.851562 534.796875 206.722656 C 533.496094 206.589844 532.1875 206.527344 530.878906 206.523438 L 445.011719 206.523438 C 443.703125 206.527344 442.394531 206.589844 441.089844 206.71875 C 439.789062 206.847656 438.492188 207.042969 437.210938 207.296875 C 435.925781 207.554688 434.65625 207.871094 433.402344 208.253906 C 432.148438 208.632812 430.917969 209.074219 429.707031 209.574219 C 428.5 210.078125 427.316406 210.636719 426.160156 211.253906 C 425.003906 211.871094 423.882812 212.542969 422.792969 213.273438 C 421.707031 214 420.65625 214.777344 419.640625 215.609375 C 418.628906 216.441406 417.660156 217.316406 416.734375 218.242188 C 415.808594 219.167969 414.929688 220.136719 414.097656 221.148438 C 413.265625 222.164062 412.484375 223.210938 411.757812 224.300781 C 411.03125 225.390625 410.355469 226.511719 409.738281 227.664062 C 409.121094 228.820312 408.558594 230.003906 408.058594 231.210938 C 407.554688 232.421875 407.113281 233.652344 406.734375 234.90625 C 406.351562 236.15625 406.035156 237.425781 405.777344 238.710938 C 405.519531 239.996094 405.328125 241.289062 405.195312 242.589844 C 405.066406 243.894531 405 245.199219 405 246.511719 L 405 433.695312 C 405 433.875 405.042969 434.046875 405.054688 434.226562 C 405.066406 434.402344 405.089844 434.648438 405.113281 434.839844 C 405.195312 435.417969 405.335938 435.980469 405.539062 436.53125 C 405.574219 436.632812 405.59375 436.742188 405.632812 436.84375 C 405.902344 437.492188 406.246094 438.101562 406.667969 438.664062 C 406.703125 438.722656 406.722656 438.785156 406.765625 438.835938 L 436.320312 477.226562 C 437.117188 478.265625 438.109375 479.078125 439.285156 479.660156 C 440.464844 480.238281 441.710938 480.527344 443.023438 480.53125 L 456.09375 480.53125 L 456.09375 487.777344 C 456.09375 488.59375 456.132812 489.40625 456.207031 490.21875 C 456.277344 491.03125 456.386719 491.839844 456.53125 492.640625 C 456.675781 493.441406 456.855469 494.238281 457.070312 495.023438 C 457.285156 495.808594 457.535156 496.585938 457.820312 497.351562 C 458.101562 498.113281 458.417969 498.863281 458.769531 499.601562 C 459.121094 500.335938 459.5 501.058594 459.914062 501.757812 C 460.328125 502.460938 460.769531 503.144531 461.246094 503.808594 C 461.71875 504.472656 462.222656 505.113281 462.75 505.734375 C 463.28125 506.351562 463.839844 506.945312 464.421875 507.515625 C 465.003906 508.085938 465.613281 508.628906 466.242188 509.144531 C 466.875 509.660156 467.527344 510.148438 468.203125 510.609375 C 468.875 511.066406 469.570312 511.492188 470.28125 511.890625 C 470.992188 512.289062 471.722656 512.652344 472.464844 512.988281 C 473.210938 513.320312 473.96875 513.617188 474.738281 513.882812 C 475.507812 514.152344 476.289062 514.382812 477.082031 514.578125 C 477.871094 514.777344 478.671875 514.9375 479.476562 515.0625 L 479.476562 546.058594 C 479.476562 547.9375 479.570312 549.808594 479.757812 551.675781 C 479.941406 553.542969 480.21875 555.398438 480.585938 557.238281 C 480.953125 559.082031 481.410156 560.898438 481.957031 562.695312 C 482.503906 564.492188 483.136719 566.257812 483.855469 567.992188 C 484.574219 569.726562 485.375 571.417969 486.261719 573.074219 C 487.148438 574.730469 488.113281 576.339844 489.15625 577.898438 C 490.199219 579.460938 491.316406 580.964844 492.507812 582.417969 C 493.699219 583.867188 494.957031 585.257812 496.285156 586.585938 C 497.613281 587.914062 499.003906 589.171875 500.453125 590.363281 C 501.90625 591.554688 503.410156 592.671875 504.972656 593.714844 C 506.535156 594.757812 508.140625 595.722656 509.796875 596.609375 C 511.453125 597.492188 513.148438 598.296875 514.882812 599.015625 C 516.617188 599.734375 518.382812 600.367188 520.179688 600.914062 C 521.972656 601.460938 523.792969 601.917969 525.632812 602.285156 C 527.476562 602.652344 529.332031 602.929688 531.199219 603.113281 C 533.066406 603.300781 534.941406 603.394531 536.816406 603.394531 L 550.820312 603.394531 C 552.695312 603.394531 554.570312 603.300781 556.4375 603.113281 C 558.304688 602.929688 560.160156 602.652344 562 602.285156 C 563.839844 601.914062 565.660156 601.460938 567.453125 600.914062 C 569.25 600.367188 571.015625 599.734375 572.75 599.015625 C 574.480469 598.296875 576.175781 597.492188 577.832031 596.609375 C 579.488281 595.722656 581.09375 594.757812 582.65625 593.714844 C 584.214844 592.671875 585.722656 591.554688 587.171875 590.363281 C 588.621094 589.171875 590.011719 587.914062 591.339844 586.585938 C 592.664062 585.261719 593.925781 583.871094 595.117188 582.421875 C 596.308594 580.96875 597.421875 579.464844 598.46875 577.90625 C 599.511719 576.34375 600.472656 574.738281 601.359375 573.082031 C 602.246094 571.429688 603.046875 569.734375 603.765625 568 C 604.488281 566.265625 605.117188 564.503906 605.664062 562.707031 C 606.210938 560.910156 606.667969 559.09375 607.035156 557.253906 C 607.402344 555.414062 607.679688 553.558594 607.867188 551.691406 C 608.050781 549.824219 608.144531 547.953125 608.148438 546.074219 L 608.148438 488.136719 C 608.148438 486.816406 608.214844 485.496094 608.34375 484.179688 C 608.476562 482.863281 608.671875 481.554688 608.929688 480.257812 C 609.1875 478.960938 609.511719 477.679688 609.894531 476.414062 C 610.28125 475.148438 610.726562 473.90625 611.230469 472.683594 C 611.738281 471.460938 612.304688 470.269531 612.929688 469.101562 C 613.554688 467.9375 614.234375 466.804688 614.96875 465.703125 C 615.703125 464.605469 616.492188 463.542969 617.332031 462.519531 C 618.171875 461.5 619.058594 460.519531 619.996094 459.585938 C 620.929688 458.648438 621.910156 457.761719 622.933594 456.925781 C 623.957031 456.085938 625.015625 455.300781 626.117188 454.566406 C 627.21875 453.828125 628.351562 453.152344 629.519531 452.527344 C 630.683594 451.90625 631.878906 451.339844 633.101562 450.832031 C 634.324219 450.328125 635.570312 449.882812 636.835938 449.5 C 638.101562 449.117188 639.382812 448.792969 640.679688 448.535156 C 641.976562 448.277344 643.285156 448.085938 644.601562 447.957031 C 645.917969 447.824219 647.238281 447.761719 648.5625 447.761719 C 649.882812 447.761719 651.203125 447.824219 652.519531 447.957031 C 653.835938 448.085938 655.144531 448.277344 656.441406 448.535156 C 657.738281 448.792969 659.019531 449.117188 660.289062 449.5 C 661.554688 449.882812 662.796875 450.328125 664.019531 450.832031 C 665.242188 451.339844 666.4375 451.90625 667.605469 452.527344 C 668.769531 453.152344 669.90625 453.828125 671.003906 454.566406 C 672.105469 455.300781 673.167969 456.085938 674.1875 456.925781 C 675.210938 457.761719 676.191406 458.648438 677.128906 459.585938 C 678.0625 460.519531 678.949219 461.5 679.789062 462.519531 C 680.628906 463.542969 681.417969 464.605469 682.152344 465.703125 C 682.890625 466.804688 683.570312 467.9375 684.191406 469.101562 C 684.816406 470.269531 685.382812 471.460938 685.890625 472.683594 C 686.398438 473.90625 686.84375 475.148438 687.226562 476.414062 C 687.613281 477.679688 687.933594 478.960938 688.191406 480.257812 C 688.453125 481.554688 688.644531 482.863281 688.777344 484.179688 C 688.90625 485.496094 688.972656 486.816406 688.972656 488.136719 L 688.972656 594.9375 C 688.972656 595.492188 689.027344 596.042969 689.136719 596.589844 C 689.246094 597.132812 689.40625 597.660156 689.617188 598.175781 C 689.832031 598.6875 690.089844 599.175781 690.398438 599.636719 C 690.707031 600.097656 691.058594 600.527344 691.453125 600.917969 C 691.84375 601.3125 692.273438 601.664062 692.734375 601.972656 C 693.195312 602.28125 693.683594 602.539062 694.195312 602.753906 C 694.710938 602.964844 695.238281 603.125 695.785156 603.234375 C 696.328125 603.34375 696.878906 603.394531 697.433594 603.394531 C 697.988281 603.394531 698.539062 603.34375 699.085938 603.234375 C 699.628906 603.125 700.15625 602.964844 700.671875 602.753906 C 701.183594 602.539062 701.671875 602.28125 702.132812 601.972656 C 702.597656 601.664062 703.023438 601.3125 703.414062 600.917969 C 703.808594 600.527344 704.160156 600.097656 704.46875 599.636719 C 704.777344 599.175781 705.039062 598.6875 705.25 598.175781 C 705.460938 597.660156 705.621094 597.132812 705.730469 596.589844 C 705.839844 596.042969 705.894531 595.492188 705.894531 594.9375 L 705.894531 488.140625 C 705.894531 486.265625 705.800781 484.390625 705.617188 482.523438 C 705.433594 480.65625 705.160156 478.800781 704.792969 476.960938 C 704.425781 475.117188 703.96875 473.300781 703.425781 471.503906 C 702.878906 469.707031 702.25 467.941406 701.53125 466.207031 C 700.8125 464.472656 700.007812 462.777344 699.125 461.121094 C 698.238281 459.464844 697.273438 457.855469 696.230469 456.296875 C 695.1875 454.734375 694.070312 453.230469 692.878906 451.777344 C 691.6875 450.328125 690.429688 448.9375 689.101562 447.609375 C 687.773438 446.28125 686.382812 445.023438 684.933594 443.832031 C 683.480469 442.640625 681.976562 441.523438 680.414062 440.480469 C 678.851562 439.4375 677.242188 438.472656 675.585938 437.589844 C 673.929688 436.703125 672.234375 435.902344 670.5 435.183594 C 668.765625 434.464844 667 433.835938 665.203125 433.289062 C 663.40625 432.746094 661.585938 432.289062 659.746094 431.921875 C 657.90625 431.554688 656.050781 431.28125 654.179688 431.097656 C 652.3125 430.914062 650.4375 430.820312 648.5625 430.820312 C 646.683594 430.820312 644.808594 430.914062 642.941406 431.097656 C 641.074219 431.28125 639.21875 431.554688 637.375 431.921875 C 635.535156 432.289062 633.714844 432.746094 631.917969 433.289062 C 630.121094 433.835938 628.355469 434.464844 626.621094 435.183594 C 624.886719 435.902344 623.191406 436.703125 621.535156 437.589844 C 619.878906 438.472656 618.269531 439.4375 616.707031 440.480469 C 615.148438 441.523438 613.640625 442.640625 612.1875 443.832031 C 610.738281 445.023438 609.347656 446.28125 608.019531 447.609375 C 606.691406 448.9375 605.433594 450.328125 604.242188 451.777344 C 603.050781 453.230469 601.933594 454.734375 600.890625 456.296875 C 599.847656 457.855469 598.882812 459.464844 597.996094 461.121094 C 597.113281 462.777344 596.3125 464.472656 595.59375 466.207031 C 594.875 467.941406 594.242188 469.707031 593.695312 471.503906 C 593.152344 473.300781 592.695312 475.117188 592.328125 476.960938 C 591.964844 478.800781 591.6875 480.65625 591.503906 482.523438 C 591.320312 484.390625 591.226562 486.265625 591.226562 488.140625 L 591.226562 546.078125 C 591.226562 547.402344 591.160156 548.722656 591.03125 550.039062 C 590.898438 551.355469 590.703125 552.660156 590.445312 553.957031 C 590.183594 555.253906 589.863281 556.535156 589.476562 557.800781 C 589.09375 559.066406 588.648438 560.3125 588.140625 561.53125 C 587.632812 562.753906 587.066406 563.949219 586.441406 565.113281 C 585.820312 566.28125 585.140625 567.414062 584.402344 568.515625 C 583.667969 569.613281 582.882812 570.675781 582.042969 571.695312 C 581.203125 572.71875 580.316406 573.699219 579.378906 574.632812 C 578.445312 575.570312 577.464844 576.457031 576.441406 577.296875 C 575.417969 578.132812 574.359375 578.921875 573.257812 579.65625 C 572.160156 580.390625 571.023438 581.070312 569.859375 581.695312 C 568.691406 582.320312 567.496094 582.886719 566.277344 583.390625 C 565.054688 583.898438 563.808594 584.34375 562.542969 584.730469 C 561.277344 585.113281 559.996094 585.4375 558.699219 585.695312 C 557.402344 585.957031 556.09375 586.148438 554.777344 586.28125 C 553.460938 586.414062 552.140625 586.480469 550.820312 586.480469 L 536.816406 586.480469 C 535.496094 586.480469 534.175781 586.414062 532.859375 586.28125 C 531.542969 586.148438 530.234375 585.957031 528.9375 585.695312 C 527.640625 585.4375 526.359375 585.113281 525.089844 584.730469 C 523.824219 584.34375 522.582031 583.898438 521.359375 583.390625 C 520.136719 582.886719 518.941406 582.320312 517.777344 581.695312 C 516.609375 581.070312 515.476562 580.390625 514.375 579.65625 C 513.277344 578.921875 512.214844 578.132812 511.191406 577.292969 C 510.167969 576.457031 509.191406 575.566406 508.253906 574.632812 C 507.316406 573.695312 506.429688 572.71875 505.589844 571.695312 C 504.75 570.671875 503.964844 569.613281 503.226562 568.511719 C 502.492188 567.414062 501.8125 566.28125 501.1875 565.113281 C 500.5625 563.945312 500 562.753906 499.492188 561.53125 C 498.984375 560.308594 498.539062 559.066406 498.152344 557.800781 C 497.765625 556.535156 497.445312 555.253906 497.1875 553.957031 C 496.925781 552.65625 496.730469 551.351562 496.601562 550.035156 C 496.46875 548.71875 496.402344 547.398438 496.402344 546.074219 L 496.402344 515.082031 C 497.207031 514.953125 498.003906 514.792969 498.796875 514.597656 C 499.589844 514.398438 500.371094 514.167969 501.140625 513.902344 C 501.910156 513.636719 502.667969 513.335938 503.414062 513.003906 C 504.15625 512.671875 504.886719 512.304688 505.597656 511.910156 C 506.3125 511.511719 507.003906 511.085938 507.679688 510.625 C 508.351562 510.167969 509.003906 509.679688 509.636719 509.164062 C 510.269531 508.648438 510.875 508.105469 511.460938 507.535156 C 512.042969 506.964844 512.597656 506.371094 513.128906 505.75 C 513.660156 505.132812 514.164062 504.492188 514.636719 503.828125 C 515.109375 503.164062 515.554688 502.480469 515.96875 501.777344 C 516.382812 501.074219 516.765625 500.355469 517.113281 499.617188 C 517.464844 498.882812 517.78125 498.132812 518.066406 497.367188 C 518.347656 496.601562 518.597656 495.828125 518.8125 495.042969 C 519.027344 494.253906 519.207031 493.460938 519.351562 492.65625 C 519.496094 491.855469 519.605469 491.046875 519.679688 490.234375 C 519.753906 489.425781 519.792969 488.609375 519.792969 487.796875 L 519.792969 480.546875 L 532.859375 480.546875 C 534.171875 480.546875 535.417969 480.253906 536.597656 479.675781 C 537.773438 479.09375 538.761719 478.285156 539.5625 477.242188 L 569.121094 438.851562 C 569.164062 438.800781 569.179688 438.738281 569.21875 438.683594 C 569.640625 438.117188 569.988281 437.511719 570.257812 436.859375 C 570.292969 436.757812 570.316406 436.648438 570.351562 436.546875 C 570.550781 435.996094 570.695312 435.433594 570.777344 434.855469 C 570.804688 434.648438 570.828125 434.433594 570.839844 434.242188 C 570.851562 434.050781 570.890625 433.890625 570.890625 433.714844 Z M 421.933594 246.511719 C 421.933594 245.753906 421.972656 245 422.046875 244.25 C 422.121094 243.5 422.230469 242.753906 422.378906 242.011719 C 422.527344 241.269531 422.710938 240.539062 422.933594 239.816406 C 423.152344 239.09375 423.40625 238.382812 423.695312 237.6875 C 423.984375 236.988281 424.308594 236.304688 424.664062 235.640625 C 425.019531 234.972656 425.410156 234.328125 425.828125 233.699219 C 426.25 233.070312 426.699219 232.464844 427.179688 231.882812 C 427.65625 231.296875 428.164062 230.738281 428.699219 230.203125 C 429.234375 229.671875 429.792969 229.164062 430.375 228.683594 C 430.960938 228.207031 431.566406 227.757812 432.195312 227.335938 C 432.820312 226.917969 433.46875 226.527344 434.132812 226.171875 C 434.800781 225.816406 435.484375 225.492188 436.179688 225.203125 C 436.878906 224.914062 437.589844 224.660156 438.3125 224.441406 C 439.035156 224.21875 439.765625 224.035156 440.507812 223.886719 C 441.246094 223.738281 441.996094 223.628906 442.746094 223.554688 C 443.496094 223.480469 444.25 223.441406 445.007812 223.441406 L 530.875 223.441406 C 531.628906 223.441406 532.382812 223.480469 533.136719 223.554688 C 533.886719 223.628906 534.632812 223.738281 535.375 223.886719 C 536.117188 224.035156 536.847656 224.21875 537.570312 224.441406 C 538.292969 224.660156 539.003906 224.914062 539.703125 225.203125 C 540.398438 225.492188 541.082031 225.816406 541.746094 226.171875 C 542.414062 226.527344 543.058594 226.917969 543.6875 227.335938 C 544.316406 227.757812 544.921875 228.207031 545.507812 228.683594 C 546.089844 229.164062 546.648438 229.671875 547.183594 230.203125 C 547.71875 230.738281 548.226562 231.296875 548.703125 231.882812 C 549.183594 232.464844 549.632812 233.070312 550.054688 233.699219 C 550.472656 234.328125 550.859375 234.972656 551.21875 235.640625 C 551.574219 236.304688 551.898438 236.988281 552.1875 237.6875 C 552.476562 238.382812 552.730469 239.09375 552.949219 239.816406 C 553.171875 240.539062 553.355469 241.269531 553.5 242.011719 C 553.648438 242.753906 553.761719 243.5 553.835938 244.25 C 553.910156 245 553.949219 245.753906 553.949219 246.511719 L 553.949219 265.09375 L 536.183594 265.09375 C 535.628906 265.09375 535.078125 265.148438 534.535156 265.253906 C 533.988281 265.363281 533.460938 265.523438 532.945312 265.738281 C 532.433594 265.949219 531.945312 266.210938 531.484375 266.519531 C 531.023438 266.828125 530.59375 267.175781 530.203125 267.570312 C 529.808594 267.960938 529.457031 268.390625 529.148438 268.851562 C 528.839844 269.3125 528.582031 269.800781 528.367188 270.3125 C 528.15625 270.828125 527.996094 271.355469 527.886719 271.902344 C 527.777344 272.445312 527.722656 272.996094 527.722656 273.550781 C 527.722656 274.105469 527.777344 274.65625 527.886719 275.199219 C 527.996094 275.746094 528.15625 276.273438 528.367188 276.789062 C 528.582031 277.300781 528.839844 277.789062 529.148438 278.25 C 529.457031 278.710938 529.808594 279.140625 530.203125 279.53125 C 530.59375 279.925781 531.023438 280.273438 531.484375 280.582031 C 531.945312 280.890625 532.433594 281.152344 532.945312 281.363281 C 533.460938 281.578125 533.988281 281.738281 534.535156 281.847656 C 535.078125 281.953125 535.628906 282.007812 536.183594 282.007812 L 553.949219 282.007812 L 553.949219 327.949219 L 536.183594 327.949219 C 535.628906 327.949219 535.078125 328.003906 534.535156 328.113281 C 533.988281 328.21875 533.460938 328.378906 532.945312 328.59375 C 532.433594 328.804688 531.945312 329.066406 531.484375 329.375 C 531.023438 329.683594 530.59375 330.035156 530.203125 330.425781 C 529.808594 330.820312 529.457031 331.246094 529.148438 331.707031 C 528.839844 332.171875 528.582031 332.65625 528.367188 333.171875 C 528.15625 333.683594 527.996094 334.210938 527.886719 334.757812 C 527.777344 335.300781 527.722656 335.851562 527.722656 336.40625 C 527.722656 336.960938 527.777344 337.511719 527.886719 338.058594 C 527.996094 338.601562 528.15625 339.132812 528.367188 339.644531 C 528.582031 340.15625 528.839844 340.644531 529.148438 341.105469 C 529.457031 341.566406 529.808594 341.996094 530.203125 342.386719 C 530.59375 342.78125 531.023438 343.132812 531.484375 343.441406 C 531.945312 343.75 532.433594 344.007812 532.945312 344.222656 C 533.460938 344.433594 533.988281 344.59375 534.535156 344.703125 C 535.078125 344.8125 535.628906 344.867188 536.183594 344.867188 L 553.949219 344.867188 L 553.949219 390.808594 L 536.183594 390.808594 C 535.628906 390.808594 535.078125 390.863281 534.535156 390.972656 C 533.988281 391.082031 533.460938 391.242188 532.945312 391.453125 C 532.433594 391.667969 531.945312 391.925781 531.484375 392.234375 C 531.023438 392.542969 530.59375 392.894531 530.203125 393.289062 C 529.808594 393.679688 529.457031 394.105469 529.148438 394.570312 C 528.839844 395.03125 528.582031 395.519531 528.367188 396.03125 C 528.15625 396.542969 527.996094 397.074219 527.886719 397.617188 C 527.777344 398.164062 527.722656 398.710938 527.722656 399.269531 C 527.722656 399.824219 527.777344 400.375 527.886719 400.917969 C 527.996094 401.460938 528.15625 401.992188 528.367188 402.503906 C 528.582031 403.019531 528.839844 403.503906 529.148438 403.96875 C 529.457031 404.429688 529.808594 404.855469 530.203125 405.25 C 530.59375 405.640625 531.023438 405.992188 531.484375 406.300781 C 531.945312 406.609375 532.433594 406.871094 532.945312 407.082031 C 533.460938 407.292969 533.988281 407.457031 534.535156 407.5625 C 535.078125 407.671875 535.628906 407.726562 536.183594 407.726562 L 553.949219 407.726562 L 553.949219 425.238281 L 421.917969 425.238281 Z M 502.871094 487.796875 C 502.871094 488.5 502.800781 489.195312 502.660156 489.886719 C 502.523438 490.574219 502.316406 491.246094 502.046875 491.894531 C 501.777344 492.546875 501.445312 493.164062 501.054688 493.746094 C 500.660156 494.332031 500.21875 494.875 499.71875 495.371094 C 499.222656 495.867188 498.679688 496.3125 498.09375 496.703125 C 497.507812 497.09375 496.890625 497.425781 496.238281 497.695312 C 495.589844 497.964844 494.917969 498.167969 494.230469 498.308594 C 493.539062 498.445312 492.839844 498.515625 492.136719 498.515625 L 483.753906 498.515625 C 483.046875 498.515625 482.351562 498.445312 481.660156 498.308594 C 480.96875 498.167969 480.296875 497.964844 479.648438 497.695312 C 478.996094 497.425781 478.378906 497.09375 477.792969 496.703125 C 477.207031 496.3125 476.664062 495.867188 476.164062 495.367188 C 475.667969 494.871094 475.222656 494.328125 474.832031 493.742188 C 474.4375 493.15625 474.109375 492.539062 473.839844 491.886719 C 473.566406 491.238281 473.363281 490.566406 473.226562 489.875 C 473.089844 489.183594 473.019531 488.488281 473.019531 487.78125 L 473.019531 480.546875 L 502.871094 480.546875 Z M 528.695312 463.628906 L 447.195312 463.628906 L 430.660156 442.15625 L 545.226562 442.15625 Z M 528.695312 463.628906 "
       fill-opacity="1"
       fill-rule="nonzero"
       id="path14"
       style="fill:#000000;fill-opacity:1" />
  </g>
  <g
     clip-path="url(#03f2183563)"
     id="g20"
     style="fill:#000000;fill-opacity:1">
    <path
       fill="#2e4c69"
       d="M 247.398438 426.613281 L 247.480469 426.613281 L 242.234375 425.902344 C 201.910156 421.410156 169.882812 389.15625 163.867188 382.734375 L 159.335938 377.898438 L 154.800781 382.730469 C 141.488281 396.929688 109.808594 422.011719 75.539062 425.902344 L 70.40625 426.488281 L 70.046875 431.648438 C 69.097656 445.308594 68.734375 516.125 155.714844 568.113281 L 158.898438 570.019531 L 162.085938 568.113281 C 249.035156 516.144531 248.699219 445.316406 247.753906 431.648438 Z M 158.898438 555.507812 C 88.933594 512.175781 82.289062 456.878906 82.28125 437.488281 C 111.257812 432.496094 140.539062 414.042969 159.320312 395.851562 C 177.566406 413.742188 205.527344 432.464844 235.511719 437.503906 C 235.5 456.910156 228.820312 512.207031 158.898438 555.507812 Z M 261.660156 414.851562 C 258.203125 410.59375 253.09375 407.96875 247.652344 407.65625 C 214.46875 405.722656 180.476562 375.730469 172.546875 364.121094 L 167.921875 357.351562 L 150.707031 357.351562 L 146.082031 364.117188 C 138.402344 375.335938 103.425781 405.71875 70.15625 407.65625 C 64.710938 407.96875 59.605469 410.582031 56.144531 414.839844 C 53.273438 418.378906 51.714844 422.804688 51.722656 427.355469 C 50.488281 439.097656 45.132812 526.648438 151.214844 587.074219 L 158.894531 591.441406 L 166.578125 587.074219 C 272.667969 526.644531 267.308594 439.101562 266.070312 427.363281 C 266.085938 422.808594 264.53125 418.382812 261.660156 414.851562 Z M 160.441406 576.273438 L 158.898438 577.148438 L 157.359375 576.273438 C 56.878906 519.035156 63.078125 437.472656 64.117188 428.355469 L 64.167969 427.925781 L 64.152344 427.496094 C 64.109375 425.746094 64.6875 424.039062 65.78125 422.695312 C 67.042969 421.140625 68.898438 420.191406 70.871094 420.070312 C 109.433594 417.828125 147.113281 384.613281 156.339844 371.144531 L 157.265625 369.789062 L 161.363281 369.789062 L 162.289062 371.144531 C 170.316406 382.894531 206.734375 417.730469 246.9375 420.070312 C 248.902344 420.183594 250.757812 421.140625 252.011719 422.6875 C 253.109375 424.046875 253.683594 425.75 253.640625 427.5 L 253.628906 427.9375 L 253.683594 428.371094 C 254.722656 437.480469 260.925781 519.03125 160.441406 576.273438 Z M 149.320312 490.773438 L 195.460938 444.605469 L 204.242188 453.394531 L 149.3125 508.351562 L 125.710938 484.738281 L 134.492188 475.949219 Z M 372.476562 550.582031 C 382.515625 550.582031 390.667969 542.417969 390.667969 532.027344 C 390.675781 527.15625 388.78125 522.585938 385.339844 519.144531 C 382.566406 516.375 379.042969 514.660156 375.234375 514.085938 L 375.234375 323.597656 C 375.234375 316.972656 369.847656 311.582031 363.226562 311.582031 L 352.15625 311.582031 L 352.15625 291.226562 C 352.15625 283.828125 346.808594 277.683594 339.792969 276.390625 L 339.792969 202.214844 L 327.371094 202.214844 L 327.371094 276.386719 C 320.347656 277.683594 315.007812 283.828125 315.007812 291.226562 L 315.007812 311.582031 L 303.9375 311.582031 C 297.316406 311.582031 291.9375 316.972656 291.9375 323.597656 L 291.9375 514.089844 C 283.222656 515.429688 276.496094 522.933594 276.476562 532.351562 C 276.46875 537.21875 278.359375 541.789062 281.792969 545.238281 C 285.226562 548.679688 289.800781 550.582031 294.675781 550.582031 L 314.273438 550.582031 L 314.273438 579.480469 L 289.261719 579.480469 L 289.261719 587.5625 C 288.355469 589.453125 287.800781 591.558594 287.792969 593.828125 C 287.785156 597.605469 289.257812 601.15625 291.917969 603.832031 C 294.585938 606.496094 298.140625 607.964844 301.910156 607.964844 L 365.261719 607.964844 C 373.042969 607.964844 379.371094 601.632812 379.371094 593.625 C 379.371094 589.847656 377.902344 586.296875 375.234375 583.632812 C 372.566406 580.96875 369.03125 579.503906 365.273438 579.503906 C 365.265625 579.503906 365.261719 579.503906 365.253906 579.503906 L 352.921875 579.511719 L 352.921875 550.589844 L 372.476562 550.589844 Z M 327.433594 291.226562 C 327.433594 289.742188 328.644531 288.539062 330.117188 288.539062 L 337.050781 288.542969 C 338.535156 288.542969 339.730469 289.75 339.730469 291.226562 L 339.730469 311.582031 L 327.425781 311.582031 L 327.425781 291.226562 Z M 362.8125 323.597656 L 362.8125 513.816406 L 304.347656 513.816406 L 304.296875 489.550781 L 317.191406 489.550781 L 317.191406 477.117188 L 304.273438 477.117188 L 304.234375 458.390625 L 329.933594 458.390625 L 329.933594 445.957031 L 304.203125 445.957031 L 304.164062 427.234375 L 317.199219 427.234375 L 317.199219 414.800781 L 304.140625 414.800781 L 304.101562 396.074219 L 329.941406 396.074219 L 329.941406 383.640625 L 304.078125 383.640625 L 304.039062 364.914062 L 317.207031 364.914062 L 317.207031 352.480469 L 304.011719 352.480469 L 303.949219 324.011719 Z M 290.582031 536.457031 C 289.496094 535.367188 288.902344 533.921875 288.902344 532.007812 C 288.90625 528.832031 291.5 526.246094 294.675781 526.246094 L 372.484375 526.246094 C 374.023438 526.246094 375.472656 526.847656 376.5625 527.9375 C 377.652344 529.019531 378.25 530.464844 378.25 532.382812 C 378.25 535.5625 375.65625 538.152344 372.476562 538.152344 L 294.667969 538.152344 C 293.128906 538.152344 291.675781 537.546875 290.582031 536.457031 Z M 365.261719 591.929688 C 365.265625 591.929688 365.265625 591.929688 365.261719 591.929688 C 365.835938 591.929688 366.222656 592.199219 366.453125 592.425781 C 366.679688 592.648438 366.953125 593.046875 366.953125 593.847656 C 366.953125 594.773438 366.191406 595.53125 365.265625 595.53125 L 301.917969 595.53125 C 301.332031 595.53125 300.945312 595.265625 300.710938 595.03125 C 300.492188 594.808594 300.21875 594.417969 300.21875 593.605469 C 300.21875 592.679688 300.980469 591.917969 301.910156 591.917969 L 318.429688 591.90625 L 328.230469 591.90625 L 328.230469 579.472656 L 326.691406 579.472656 L 326.691406 550.578125 L 340.496094 550.578125 L 340.496094 591.929688 Z M 365.261719 591.929688 "
       fill-opacity="1"
       fill-rule="nonzero"
       id="path18"
       style="fill:#000000;fill-opacity:1" />
  </g>
</svg>
