<?xml version="1.0" encoding="UTF-8" standalone="no"?>
<!-- Created with Inkscape (http://www.inkscape.org/) -->

<svg
   width="30mm"
   height="30mm"
   viewBox="0 0 30 30"
   version="1.1"
   id="svg5"
   xml:space="preserve"
   inkscape:version="1.2.2 (732a01da63, 2022-12-09)"
   sodipodi:docname="endocrinologist.svg"
   xmlns:inkscape="http://www.inkscape.org/namespaces/inkscape"
   xmlns:sodipodi="http://sodipodi.sourceforge.net/DTD/sodipodi-0.dtd"
   xmlns="http://www.w3.org/2000/svg"
   xmlns:svg="http://www.w3.org/2000/svg"><sodipodi:namedview
     id="namedview7"
     pagecolor="#ffffff"
     bordercolor="#000000"
     borderopacity="0.25"
     inkscape:showpageshadow="2"
     inkscape:pageopacity="0.0"
     inkscape:pagecheckerboard="0"
     inkscape:deskcolor="#d1d1d1"
     inkscape:document-units="mm"
     showgrid="false"
     inkscape:zoom="6.1504487"
     inkscape:cx="82.514305"
     inkscape:cy="71.051726"
     inkscape:window-width="1920"
     inkscape:window-height="1017"
     inkscape:window-x="-8"
     inkscape:window-y="-8"
     inkscape:window-maximized="1"
     inkscape:current-layer="layer1" /><defs
     id="defs2" /><g
     inkscape:label="Слой 1"
     inkscape:groupmode="layer"
     id="layer1"><g
       id="g4102"
       transform="matrix(0.81652153,0,0,0.81652153,-53.511106,-75.196073)"
       style="stroke-width:0.421394;stroke-dasharray:none;fill:none;fill-opacity:1;stroke:#000000;stroke-opacity:1"><path
         style="fill:none;stroke:#000000;stroke-width:0.421394;stroke-linecap:round;stroke-linejoin:round;stroke-dasharray:none;stroke-opacity:1;fill-opacity:1"
         d="m 91.205794,116.28532 c 0.553596,-0.0161 0.372618,0.87952 0.591597,1.44385 0.872177,0.35761 0.638861,0.94047 0.68788,1.45927 0.68524,0.47112 0.15269,1.64984 0.15269,1.64984 0,0 0.34784,-0.52191 0.621348,-0.6362 0.968461,0.007 -0.0021,2.9e-4 1.142852,0.006 0.310895,0.11237 0.766095,0.6298 0.766095,0.6298 0,0 -1.059078,-1.12394 0.114345,-1.58595 -0.565263,-0.97341 0.645355,-1.46521 0.645355,-1.46521 0,0 0.07802,-1.47926 0.6427,-1.48108 0.55014,-10e-4 0.44373,0.9381 0.52846,1.51371 0.808955,0.35515 0.493571,1.2185 0.493571,1.2185 h -0.740352 c 0,0 1.092952,-0.0782 1.330679,0.2933 0.526484,0.82271 0.0344,1.05953 -0.08133,1.54216 0.702131,1.30651 -0.141985,1.80982 -0.586116,1.65037 -0.393399,0.064 -1.048828,-0.94086 -1.048828,-0.94086 0.293247,0.26325 0.96611,1.46719 -0.27764,2.02055 -0.779754,0.1612 -1.456901,-1.16695 -2.313606,-1.12596 -0.649994,0.0311 -1.478154,1.14999 -2.128518,1.17223 -0.556179,0.019 -0.95518,-0.56509 -0.987137,-1.09511 -0.02077,-0.34488 0.508994,-0.89459 0.508994,-0.89459 -1.284701,1.76607 -2.661283,0.53231 -1.588681,-0.70951 -0.743309,-1.29295 -0.168383,-1.43779 0.293061,-1.86631 0.431093,-0.15243 0.940872,-0.0771 0.940872,-0.0771 -0.42365,1.9e-4 -0.872555,0.10299 -0.886107,-0.0504 -0.03468,-0.39225 0.02191,-0.91156 0.623888,-1.18356 0.0623,-0.67924 0.0142,-1.44779 0.553931,-1.48815 z"
         id="path351"
         sodipodi:nodetypes="cccccccccscccsccccsssccccscc" /><path
         style="fill:none;stroke:#000000;stroke-width:0.421394;stroke-linecap:round;stroke-linejoin:round;stroke-dasharray:none;stroke-opacity:1;fill-opacity:1"
         d="m 96.018959,120.8819 c 0,0 0.123909,-0.35094 0.272666,-0.43625 0.277183,-0.15896 0.653652,-0.0597 0.643476,-0.0545"
         id="path1070"
         sodipodi:nodetypes="csc" /><path
         style="fill:none;stroke:#000000;stroke-width:0.421394;stroke-linecap:round;stroke-linejoin:round;stroke-dasharray:none;stroke-opacity:1;fill-opacity:1"
         d="m 91.621451,120.8819 c 0,0 -0.123901,-0.35094 -0.272665,-0.43625 -0.277184,-0.15896 -0.653648,-0.0597 -0.643478,-0.0545"
         id="path1172"
         sodipodi:nodetypes="csc" /></g><path
       class="st0"
       d="m 12.597657,14.083502 c -0.124512,-0.03006 -0.200195,-0.160073 -0.170898,-0.287617 0.0293,-0.127554 0.15625,-0.205085 0.280761,-0.175073 0.405274,0.102542 0.810547,0.155061 1.21338,0.155061 0.402831,0 0.805664,-0.05 1.210937,-0.155061 0.124511,-0.03252 0.251465,0.04499 0.280762,0.172568 0.03174,0.127554 -0.04395,0.257604 -0.168458,0.287616 -0.439453,0.11505 -0.881348,0.170073 -1.323241,0.167569 -0.441895,0 -0.88379,-0.05501 -1.323243,-0.165063 z m 5.090329,3.841842 c -0.390625,-0.407665 -0.681152,-0.842847 -0.971679,-1.275515 -0.04639,-0.07004 -0.09521,-0.142565 -0.144043,-0.215096 -0.698243,0.567738 -1.545411,0.93038 -2.648927,0.925379 -1.191405,-0.0029 -2.087402,-0.470185 -2.822265,-1.157971 -0.04395,-0.03998 -0.08789,-0.08253 -0.129393,-0.12505 -0.104982,0.300123 -0.23926,0.657765 -0.383302,0.992909 -0.136718,0.317629 -0.283204,0.617752 -0.424805,0.835333 1.530762,3.1813 6.05713,3.291348 7.524414,0.02004 z M 13.613282,1.803487 h 0.612793 c 0.114747,0 0.20752,0.095039 0.20752,0.212587 v 0.9353815 h 0.913085 c 0.114746,0 0.20752,0.095039 0.20752,0.212587 v 0.6277562 c 0,0.1175488 -0.09277,0.212587 -0.20752,0.212587 h -0.913085 v 0.9353824 c 0,0.1175479 -0.09276,0.2125869 -0.20752,0.2125869 h -0.612793 c -0.114746,0 -0.207519,-0.095039 -0.207519,-0.2125869 V 4.0043857 h -0.913087 c -0.114746,0 -0.207518,-0.095038 -0.207518,-0.212587 V 3.1640425 c 0,-0.1175479 0.09276,-0.212587 0.207518,-0.212587 h 0.913087 V 2.016074 c 0,-0.1175478 0.09276,-0.212587 0.207519,-0.212587 z m 9.414063,13.915678 c 1.926269,0 3.669434,0.80033 4.9292,2.090858 C 29.218757,19.103055 30,20.888779 30,22.859587 30,24.832891 29.218757,26.618615 27.956545,27.909143 26.694338,29.202175 24.951174,30 23.027345,30 c -1.92627,0 -3.669434,-0.80033 -4.9292,-2.090857 -0.561523,-0.575234 -1.030273,-1.250505 -1.374511,-1.995811 H 1.5234376 C 0.56640691,25.838278 0.08056687,25.333098 0,24.455237 c 0.23193345,-1.733205 0.28808658,-2.085856 1.3159179,-3.476421 0.3637704,-0.492702 0.8178719,-0.85785 1.320801,-1.145467 1.5380861,-0.877861 5.5859382,-1.155476 7.1484385,-2.378474 0.097656,-0.170072 0.1977532,-0.385159 0.2954096,-0.612751 0.185547,-0.435172 0.356445,-0.910368 0.463867,-1.235502 C 10.090333,15.058895 9.7021494,14.443649 9.3310554,13.835898 L 8.1030281,11.835078 C 7.6538096,11.149805 7.4194346,10.522044 7.4072277,10.006838 7.3999381,9.7642346 7.4414059,9.5441479 7.5268559,9.3515683 7.6196296,9.1489879 7.7587903,8.9789153 7.94922,8.8488653 8.0371106,8.7863831 8.1372081,8.7363217 8.2470709,8.6938035 8.1665067,7.6083617 8.1372081,6.2403038 8.1884772,5.097332 8.2153288,4.8247214 8.2666052,4.5546111 8.3398447,4.2819996 10.263672,-2.7558752 19.487306,-0.25235269 19.892579,5.5575177 l -0.07568,3.2638403 v 0 c 0.339354,0.1050381 0.559081,0.3276299 0.646972,0.6852722 0.09766,0.3976648 -0.0073,0.9553918 -0.336914,1.7182018 v 0 c -0.0049,0.01503 -0.01221,0.02751 -0.02197,0.03998 l -1.398924,2.360967 c -0.515138,0.86785 -1.035157,1.738206 -1.71631,2.423488 0.06104,0.09009 0.12207,0.182578 0.183106,0.272615 0.229492,0.34264 0.458983,0.687777 0.732422,1.005406 v 0 c 0.112304,0.102542 0.239257,0.19758 0.380859,0.290122 1.247558,-1.17548 2.912599,-1.898278 4.741212,-1.898278 z m 4.050293,2.99373 c -1.037597,-1.062935 -2.468261,-1.718204 -4.050293,-1.718204 -1.582031,0 -3.012695,0.657765 -4.050294,1.718204 -1.037597,1.06043 -1.677245,2.528526 -1.677245,4.149187 0,1.620663 0.642089,3.086262 1.677245,4.149198 1.035158,1.062934 2.468263,1.718204 4.050294,1.718204 1.582032,0 3.012696,-0.657774 4.050293,-1.718204 1.035155,-1.06043 1.67725,-2.528535 1.67725,-4.149198 0,-1.620661 -0.639651,-3.086262 -1.67725,-4.149187 z M 15.385743,9.9468131 c -0.102539,-0.070045 -0.129395,-0.2100857 -0.06104,-0.3151334 0.06836,-0.1050382 0.205079,-0.1325455 0.307618,-0.062482 0.122069,0.082522 0.329589,0.1275545 0.551757,0.122554 0.209961,-0.00284 0.419922,-0.050005 0.571289,-0.1500613 0.102539,-0.067492 0.239258,-0.034975 0.305176,0.070045 0.06592,0.1050477 0.03418,0.2450986 -0.06836,0.3126284 -0.222169,0.1450612 -0.51758,0.2150862 -0.800782,0.2200872 -0.307618,0.0076 -0.610353,-0.06248 -0.805664,-0.1975803 z M 18.666994,8.631274 C 18.659673,8.3861755 18.57422,8.1485824 18.420412,7.9259907 l -0.0073,-0.017488 -0.0024,0.00472 C 16.950685,5.7973606 9.6850594,4.8419726 9.3725591,9.2587808 l 0.012208,0.03006 -0.53711,-0.044994 0.039059,0.1275544 -0.036623,-0.085074 C 8.627925,9.306366 8.4545853,9.3613804 8.3325147,9.4463887 8.2519506,9.501403 8.193355,9.5714383 8.1542928,9.6564746 c -0.041505,0.092542 -0.061039,0.2075903 -0.058594,0.3376402 0.00976,0.3826542 0.2075188,0.8828592 0.5859375,1.4605972 l 0.00489,0.0076 1.2280261,2.000811 c 3.1079116,5.049564 5.9301776,3.631482 8.2006846,-0.200076 l 1.384277,-2.33345 c 0.25879,-0.602748 0.351563,-1.0054134 0.292969,-1.2430066 -0.03418,-0.1400603 -0.187988,-0.2100857 -0.444337,-0.2225916 -0.05371,-0.00284 -0.112304,-0.00284 -0.168456,-0.00284 -0.06104,0.00284 -0.126954,0.00472 -0.192871,0.012477 -0.0073,0 -0.01465,0 -0.02197,0.00284 z m -7.763673,1.3155391 c -0.102538,-0.070045 -0.129395,-0.2100857 -0.06104,-0.3151334 0.06836,-0.1050382 0.205079,-0.1325455 0.307617,-0.062482 0.124512,0.085074 0.334473,0.1325549 0.561523,0.1325549 0.212403,0 0.429688,-0.047547 0.600586,-0.1475563 0.104981,-0.062482 0.2417,-0.025049 0.302736,0.082522 0.06104,0.1075432 0.02442,0.2476035 -0.08056,0.3101235 -0.239257,0.1425652 -0.537109,0.2050852 -0.820312,0.2075902 -0.3125,0.0028 -0.615235,-0.0725 -0.810547,-0.2075902 z m -0.09034,-1.010416 c -0.100097,0.072502 -0.236816,0.047547 -0.307617,-0.052557 -0.0708,-0.1025427 -0.04883,-0.242603 0.05127,-0.315124 0.329591,-0.2400981 0.666505,-0.3601471 1.013184,-0.362652 0.344239,-0.00284 0.688478,0.117544 1.032716,0.3601471 0.100098,0.070045 0.124511,0.2125908 0.05615,0.315124 -0.06836,0.1025426 -0.207521,0.1300594 -0.307618,0.057567 -0.268555,-0.1900745 -0.527344,-0.2826163 -0.78125,-0.2801113 -0.249024,-0.00284 -0.50293,0.092542 -0.756836,0.2776057 z m 4.782716,0 c -0.100098,0.072502 -0.236817,0.047547 -0.307618,-0.052557 -0.0708,-0.1025427 -0.04639,-0.242603 0.05127,-0.315124 0.32959,-0.2400981 0.666504,-0.3601471 1.013184,-0.362652 0.344238,-0.00284 0.688478,0.117544 1.032715,0.3601471 0.100098,0.070045 0.124512,0.2125908 0.05615,0.315124 -0.06836,0.1025426 -0.207521,0.1300594 -0.307618,0.057567 -0.268554,-0.1900751 -0.527344,-0.2826169 -0.78125,-0.2801119 -0.249022,-0.00284 -0.502929,0.092542 -0.756835,0.2776063 z"
       id="path3724"
       style="fill:#000000;fill-opacity:1;stroke-width:0.247103"
       sodipodi:nodetypes="cscscccccscccccccssssscsssscsssscsssscsscsscssccccccccccccccccccscssccccsscccsssssscsscscccsccccccccccccccccccccccccccccssscsccccsccccsccsssccccsccss" /></g><style
     type="text/css"
     id="style3722">.st0{fill-rule:evenodd;clip-rule:evenodd;}</style><style
     type="text/css"
     id="style132">.st0{fill-rule:evenodd;clip-rule:evenodd;}</style></svg>
