<?xml version="1.0" encoding="UTF-8" standalone="no"?>
<!-- Created with Inkscape (http://www.inkscape.org/) -->

<svg
   width="105mm"
   height="105mm"
   viewBox="0 0 105 105"
   version="1.1"
   id="svg5"
   xml:space="preserve"
   inkscape:version="1.2.2 (732a01da63, 2022-12-09)"
   sodipodi:docname="def_serv.svg"
   xmlns:inkscape="http://www.inkscape.org/namespaces/inkscape"
   xmlns:sodipodi="http://sodipodi.sourceforge.net/DTD/sodipodi-0.dtd"
   xmlns="http://www.w3.org/2000/svg"
   xmlns:svg="http://www.w3.org/2000/svg"><sodipodi:namedview
     id="namedview7"
     pagecolor="#ffffff"
     bordercolor="#000000"
     borderopacity="0.25"
     inkscape:showpageshadow="2"
     inkscape:pageopacity="0.0"
     inkscape:pagecheckerboard="0"
     inkscape:deskcolor="#d1d1d1"
     inkscape:document-units="mm"
     showgrid="false"
     inkscape:zoom="0.38440306"
     inkscape:cx="-434.43983"
     inkscape:cy="944.32131"
     inkscape:window-width="1920"
     inkscape:window-height="1017"
     inkscape:window-x="-8"
     inkscape:window-y="-8"
     inkscape:window-maximized="1"
     inkscape:current-layer="g191" /><defs
     id="defs2" /><g
     inkscape:label="Слой 1"
     inkscape:groupmode="layer"
     id="layer1"><g
       style="clip-rule:evenodd;fill-rule:evenodd;image-rendering:optimizeQuality;shape-rendering:geometricPrecision;text-rendering:geometricPrecision"
       id="g191"
       transform="matrix(0.26458333,0,0,0.26458333,28.972345,144.23761)"><path
         fill-rule="nonzero"
         d="m -21.696496,-484.735 c 55.124872,-65.40757 115.639907,-77.43874 166.369116,-37.39212 52.70825,2.66404 78.14743,75.88232 42.30583,115.31783 3.01332,0.65885 5.45977,2.33939 7.39904,4.74563 3.61996,4.50691 4.64429,11.78291 3.6498,19.29761 -0.93483,6.98954 -3.59013,14.45651 -7.43883,20.04241 -4.39567,6.37843 -10.21346,10.59889 -16.9462,10.2074 -0.47735,20.99726 -11.17812,30.66039 -25.18062,43.28357 l -5.35038,4.86976 c -0.87516,0.81163 -1.75031,1.59461 -2.63541,2.32985 l 0.35802,0.2769 c -1.40981,1.02805 -2.87724,1.98115 -4.39567,2.85502 -5.06198,3.60935 -10.25325,6.19701 -15.52407,8.00169 -7.53828,2.58765 -15.25556,3.55206 -22.982793,3.59025 -7.946017,0.0477 -15.961649,-0.92621 -23.877831,-3.52341 -1.103889,-0.36285 -2.197834,-0.75434 -3.281834,-1.17448 -4.515008,-1.33679 -8.781393,-3.10327 -12.63009,-5.36628 l -1.650862,-1.01215 c -2.138164,6.00604 -4.703962,11.08587 -7.617833,15.40181 l 52.250783,34.96679 49.03856,-39.22544 c -2.37684,-3.50432 -4.5349,-7.47651 -6.43438,-12.01208 16.75724,16.05112 16.96609,46.21498 16.27988,69.97177 -0.0995,3.14148 -0.18895,4.04859 -0.24862,5.10848 -13.70414,2.92185 -23.4502,14.59973 -23.4502,28.07273 0,7.94439 3.3614,15.144 8.7814,20.33841 10.58143,10.15011 25.97621,12.47996 39.55107,2.29165 7.01119,-5.26125 11.5262,-13.46345 11.5262,-22.6778 0,-4.82202 -1.33262,-9.19525 -3.6498,-13.04332 -5.04209,-8.36453 -10.50187,-10.84715 -18.87552,-14.85754 -0.58675,-0.27691 0.0199,-1.50867 0.1094,-4.92705 0.51714,-17.16829 0.35802,-35.79751 -3.91831,-51.96321 5.71835,4.14407 12.08311,6.88451 18.70645,8.95654 21.83912,4.9366 52.36874,9.1567 69.67296,13.11934 7.45952,2.2 13.5417,8.88288 16.61465,15.34003 8.73546,28.94534 13.18235,48.26056 12.44154,77.48132 -0.0814,5.01152 -9.27037,19.58435 -19.56415,17.55008 H -89.937629 c -12.272071,-0.88802 -18.519931,-6.99894 -19.564151,-17.55008 4.24649,-18.08496 5.25224,-60.65192 16.897773,-75.40443 4.674128,-5.9392 10.48198,-10.33153 16.946199,-13.75946 18.73629,-10.01643 64.632246,-12.71867 95.14336,-20.87313 -3.063045,8.94699 -4.743742,17.92263 -5.290715,25.6856 -3.510568,2.47308 -12.2422358,5.36629 -15.03676745,8.5746 -4.85313675,5.55725 -9.20902555,11.54419 -12.96821855,17.84624 -0.596697,1.00259 -0.92488,2.14842 -0.92488,3.30379 0,0.89757 0.994495,1.82378 0.566862,2.62586 l -0.636477,1.18402 c -8.721723,16.30892 -14.410236,34.25064 -11.705209,42.00406 1.263009,3.66665 4.29622,6.08243 8.791338,7.41923 4.487225,1.12812 9.1386856,1.53148 13.7638145,1.19356 0.4972476,0.43924 1.0740548,0.84983 1.7403666,1.26041 0.7060916,0.41059 1.46190803,0.74479 2.23761432,1.0217 0.98389398,0.36461 2.02833278,0.55547 3.08293528,0.56336 4.6442928,0 8.4233743,-3.62845 8.4233743,-8.09717 0,-1.15537 -0.278458,-2.3012 -0.755816,-3.36109 -1.3922935,-3.07463 -4.5050634,-5.30899 -8.0056867,-5.19441 -3.09288022,0.0955 -7.518384,1.46093 -7.518384,4.44008 v 0.0668 l -0.1193395,0.19097 c -0.7160365,0.0477 -1.4420181,0.0668 -2.1580547,0.0668 -2.6354124,0 -5.2907151,-0.24826 -7.8465681,-0.89756 -1.491742,-0.38195 -2.366898,-0.95486 -2.565797,-1.55642 -1.949211,-5.41403 3.371339,-20.44344 11.0587871,-34.95724 0.3182384,-0.59201 0.626532,-1.18402 0.9547154,-1.76648 1.4806244,-0.53032 2.7221622,-1.54002 3.5105682,-2.85501 3.3116692,-5.59545 7.1703107,-10.94264 11.456585,-15.86969 1.7602563,-2.01475 8.6222743,-5.55726 11.3670803,-5.55726 h 0.696147 c 2.10833,1.46093 4.077431,3.13193 5.797907,5.00344 4.594568,4.98434 8.652109,10.45566 12.093063,16.21344 0.785651,1.30815 2.655302,1.58506 3.480733,2.86456 8.880842,13.8263 13.893098,29.66734 12.699704,35.70203 -0.268514,1.42273 -1.481798,2.263 -3.391229,2.85501 -2.874091,0.72569 -5.837687,1.12673 -8.811227,1.18402 -0.109395,-0.21006 -0.218789,-0.42013 -0.348074,-0.62065 v -0.0668 c 0.06961,-2.97915 -4.425504,-4.34459 -7.528329,-4.44008 -3.490678,-0.11458 -6.603448,2.11978 -7.995742,5.19441 -0.477357,1.05989 -0.755816,2.20572 -0.755816,3.36109 0,4.46872 3.769137,8.09717 8.43332,8.09717 1.04422,0 2.08844,-0.21007 3.07299,-0.56336 0.775706,-0.27691 1.531523,-0.61111 2.227669,-1.0217 0.437578,-0.26736 0.845321,-0.53472 1.20334,-0.81162 0.407743,0.01 0.805541,0.01 1.203339,0.01 4.166935,0 8.363705,-0.45834 12.331741,-1.66145 5.111705,-1.53732 8.701833,-4.63105 9.726163,-9.84456 1.491743,-7.85845 -4.455338,-25.24636 -13.246676,-40.99192 0.367963,-0.82117 0.556917,-1.70919 0.556917,-2.5972 0,-1.19357 -0.338128,-2.3585 -0.954715,-3.38019 -3.958091,-6.52166 -8.582494,-12.72822 -13.783704,-18.39051 -2.784587,-3.02689 -8.920623,-3.87671 -9.567045,-7.87755 -1.690642,-10.42701 3.003376,-23.3462 10.034457,-34.56575 1.849274,-2.21783 3.489992,-4.58879 4.902862,-7.08502 l 1.10389,-1.40364 c 1.939265,-2.43488 6.076366,-4.69788 11.44664,-6.72218 -1.701651,-1.21608 -3.344299,-2.5065 -4.922752,-3.86716 l -5.350384,-4.48782 c -13.684255,-11.31503 -25.111005,-20.81583 -27.26906,-43.94242 -9.3482548,-0.77343 -15.9715931,-9.28119 -19.2335375,-19.52678 -1.7204768,-5.38538 -2.4961831,-11.27684 -2.1978345,-16.57628 0.3281834,-5.82462 1.9591556,-11.14316 5.0719257,-14.74296 0.6429114,-0.75379 1.3551888,-1.45046 2.1282199,-2.08159 l -0.4574679,-0.28645 C 1.157005,-431.58778 7.442215,-476.27499 -21.696496,-484.735 Z m 188.317626,273.59458 c 7.588,0 13.73398,5.901 13.73398,13.17699 0,7.28555 -6.14598,13.18655 -13.73398,13.18655 -7.57806,0 -13.72404,-5.901 -13.72404,-13.18655 0,-7.27599 6.14598,-13.17699 13.72404,-13.17699 z M 32.543275,-422.95589 c -2.615523,7.09457 -2.824367,15.35407 -0.725982,24.7021 0.497248,1.66144 0.169064,3.53296 -1.06411,4.96524 -1.979045,2.29165 -5.529393,2.6163 -7.916182,0.71614 -6.901797,-5.48086 -10.820108,-6.00603 -12.540585,-4.00084 -1.5016875,1.73784 -2.3171736,4.80292 -2.5160726,8.41227 -0.2386789,4.12498 0.3679632,8.72738 1.7105316,12.90964 2.277394,7.15187 6.603448,13.07197 11.993613,11.63013 0.517137,-0.17187 1.074055,-0.26735 1.650862,-0.2769 3.092989,-0.0662 5.659006,2.28223 5.738237,5.2517 0.566863,22.61096 10.999118,31.31924 23.698822,41.82264 l 5.509504,4.59286 c 6.394604,5.46177 12.958273,9.02338 19.571666,11.18135 4.932697,1.62325 9.915118,2.49217 14.917429,2.81682 3.759192,0.0668 7.548222,-0.10503 11.267632,-0.50607 5.25094,-0.57292 10.34275,-1.57551 15.00694,-2.95051 5.62884,-2.16752 11.15823,-5.49996 16.47878,-10.43656 l 5.44984,-4.9557 c 13.39585,-12.08846 23.26124,-20.98771 21.3717,-42.63427 -0.0895,-1.16492 0.1989,-2.37759 0.92488,-3.41838 1.70811,-2.48389 5.19002,-3.1679 7.77695,-1.52777 3.81886,2.42533 7.55817,0.0764 10.37259,-4.01039 2.92381,-4.23955 4.96253,-10.00688 5.67857,-15.44 0.65636,-4.89841 0.29834,-9.26209 -1.40224,-11.36278 -1.33263,-1.66144 -4.94264,-1.00259 -11.85439,4.08678 -1.26679,1.04175 -2.95003,1.48951 -4.59456,1.22222 -3.05471,-0.50798 -5.10795,-3.29015 -4.59457,-6.22566 4.92275,-27.55711 2.47629,-44.63946 -3.81886,-55.97359 -5.48962,-9.8732 -14.23123,-15.66917 -23.5596,-20.42435 -20.67555,15.17265 -35.2648,16.91048 -49.814267,18.62922 -11.973723,1.42274 -23.9375,2.84547 -39.749975,13.34887 -7.448769,4.94615 -12.401355,10.91399 -14.967153,17.85579 z"
         id="path182"
         sodipodi:nodetypes="ccccccccccccccccccccccccsccscccccccccccccccccsccccccccsccsccsccccccscccccccccccsscccscccsccccccccccccccccssssscccccccccccccccccccccccccccccccc"
         style="stroke-width:0.974474" /></g></g></svg>
